<svg width="50" height="50" viewBox="0 0 50 50" fill="none" xmlns="http://www.w3.org/2000/svg">
<ellipse cx="25" cy="24.9996" rx="25" ry="24.9996" fill="#E35629"/>
<path d="M6.25 29.5828L15.2967 13.9159C16.7782 11.3483 20.4824 11.3483 21.9639 13.9159L25.4604 19.9757L28.9607 13.9159C30.4423 11.3483 34.1427 11.3483 35.6242 13.9159L44.6709 29.5828H33.5233L36.7608 24.0678C37.0352 23.6014 36.8784 23.0018 36.412 22.7274C35.9457 22.453 35.346 22.6098 35.0713 23.0761L25.6445 39.4565L20.1333 29.5831L23.367 24.0681C23.6415 23.6017 23.4847 23.0021 23.018 22.7277C22.5516 22.4532 21.952 22.6101 21.6776 23.0764L17.8599 29.5834H6.25V29.5828Z" fill="#F4F4FD"/>
</svg>
